<?xml version="1.0" encoding="UTF-8"?> <svg xmlns="http://www.w3.org/2000/svg" width="114.883" height="58" viewBox="0 0 114.883 58"><g id="Group_105" data-name="Group 105" transform="translate(-63.124 -655.954)"><path id="Path_123" data-name="Path 123" d="M172.79,693.063H153.529c-34.9,0-65.188-11.893-65.188-23.576,0-5.548,4.555-11.157,13.653-13.533h70.8Zm-107.379-37.1H96.977c-13.744,4.42-22.7,11.964-22.7,20.912,0,5.895,3.615,11.46,9.993,16.188H65.411Z" transform="translate(2.617 0)" fill="#390"></path><path id="Path_124" data-name="Path 124" d="M68.843,689.654H64.816l-1.692-12.7h3.594l.714,6.36c.075.678.131,1.389.15,2.258h.039a25.022,25.022,0,0,1,1.053-2.449l3.028-6.169H75.3Z" transform="translate(0 24.034)"></path><path id="Path_125" data-name="Path 125" d="M77.145,679.929H73.289l-.341,1.786h3.669l-.562,2.859H72.4l-.395,2.052h3.858l-.566,3.028H68.02l2.408-12.7h7.28Z" transform="translate(5.603 24.034)"></path><path id="Path_126" data-name="Path 126" d="M80.531,680.087a5.758,5.758,0,0,0-1.786-.337c-1.244,0-1.655.431-1.655,1.034,0,1.353,3.33,1.409,3.33,4.5,0,2.616-2.333,4.778-5.663,4.778a14.556,14.556,0,0,1-2.578-.225l.6-3.255a6.138,6.138,0,0,0,2.166.414c1.147,0,1.692-.337,1.692-1.07,0-1.357-3.33-1.319-3.33-4.329,0-2.6,1.75-4.761,5.475-4.761a15.525,15.525,0,0,1,2.352.187Z" transform="translate(10.363 23.894)"></path><path id="Path_127" data-name="Path 127" d="M80.989,685.811c-.112,0-.32,0-.564-.021l-.736,3.916H76.267l2.408-12.7c1.167-.058,2.427-.094,3.933-.094,2.464,0,4.272,1.092,4.272,3.5a5.587,5.587,0,0,1-5.891,5.4m1.111-6.06a3.484,3.484,0,0,0-.508.021l-.583,3.1a1.261,1.261,0,0,0,.227.019,2.047,2.047,0,0,0,2.05-2.069,1.034,1.034,0,0,0-1.186-1.074" transform="translate(15.041 23.985)"></path><path id="Path_128" data-name="Path 128" d="M91.851,684.989c-.66,3.405-2.936,4.93-6.191,4.93-3.95,0-4.758-2.333-4.214-5.247l1.467-7.716h3.425l-1.544,8.089c-.242,1.28.189,1.939,1.357,1.939,1.484,0,2.087-.753,2.37-2.256l1.486-7.771h3.386Z" transform="translate(20.794 24.035)"></path><path id="Path_129" data-name="Path 129" d="M96.167,680.392a5.558,5.558,0,0,0-1.786-.3c-2.861,0-3.558,2.994-3.558,4.535a1.786,1.786,0,0,0,2.05,2.052,6.526,6.526,0,0,0,2.164-.358l-.281,3.236a15.022,15.022,0,0,1-2.919.317c-4.194,0-4.928-2.689-4.928-4.55,0-4.122,2.578-8.41,7.694-8.41a8.594,8.594,0,0,1,2.5.337Z" transform="translate(27.221 23.985)"></path><path id="Path_130" data-name="Path 130" d="M94.713,689.654H91.288l2.408-12.7h3.425Z" transform="translate(32.232 24.034)"></path><path id="Path_131" data-name="Path 131" d="M98.866,690.059c-3.405,0-4.911-1.827-4.911-4.688,0-4.533,3.313-8.539,7.638-8.539,3.236,0,4.855,1.711,4.855,4.722,0,4.949-3.461,8.5-7.583,8.5m2.164-10.029c-2.239,0-3.405,2.5-3.405,4.722,0,1.394.6,2.091,1.767,2.091,2.11,0,3.425-2.408,3.425-4.874a1.712,1.712,0,0,0-1.786-1.939" transform="translate(35.283 23.895)"></path><path id="Path_132" data-name="Path 132" d="M110.04,680.087a5.77,5.77,0,0,0-1.786-.337c-1.244,0-1.656.431-1.656,1.034,0,1.353,3.328,1.409,3.328,4.5,0,2.616-2.333,4.778-5.661,4.778a14.6,14.6,0,0,1-2.58-.225l.6-3.255a6.126,6.126,0,0,0,2.164.414c1.147,0,1.692-.337,1.692-1.07,0-1.357-3.33-1.319-3.33-4.329,0-2.6,1.75-4.761,5.475-4.761a15.548,15.548,0,0,1,2.352.187Z" transform="translate(44.13 23.894)"></path><path id="Path_133" data-name="Path 133" d="M116.7,684.989c-.658,3.405-2.936,4.93-6.189,4.93-3.952,0-4.761-2.333-4.216-5.247l1.469-7.716h3.422l-1.544,8.089c-.242,1.28.191,1.939,1.357,1.939,1.486,0,2.086-.753,2.37-2.256l1.486-7.771h3.386Z" transform="translate(49.229 24.035)"></path><path id="Path_134" data-name="Path 134" d="M119.418,684.53c.189.433.414.961.6,1.45l1.43,3.725H117.48l-1.447-4.628H115.9l-.883,4.628h-3.425l2.406-12.7c1.186-.077,2.713-.094,4.2-.094,2.991,0,4.347,1.091,4.347,3.086a4.667,4.667,0,0,1-3.122,4.533m-1.808-4.739a5.955,5.955,0,0,0-.714.036l-.508,2.728a4.288,4.288,0,0,0,.547.039,1.87,1.87,0,0,0,1.917-1.881c0-.566-.375-.922-1.242-.922" transform="translate(55.466 23.983)"></path></g></svg> 